<svg width="264" height="260" viewBox="0 0 264 260" fill="none" xmlns="http://www.w3.org/2000/svg">
<mask id="mask0_487_48" style="mask-type:alpha" maskUnits="userSpaceOnUse" x="67" y="76" width="143" height="126">
<path d="M201.654 76.8552C207.813 76.8552 211.662 83.5218 208.582 88.8552L145.583 197.973C142.504 203.306 134.806 203.306 131.727 197.973L68.7283 88.8551C65.6491 83.5218 69.4981 76.8552 75.6565 76.8552H201.654Z" fill="#18181B"/>
</mask>
<g mask="url(#mask0_487_48)">
<path d="M201.654 76.8552C207.813 76.8552 211.662 83.5218 208.582 88.8552L145.583 197.973C142.504 203.306 134.806 203.306 131.727 197.973L68.7283 88.8551C65.6491 83.5218 69.4981 76.8552 75.6565 76.8552H201.654Z" fill="#18181B"/>
<path d="M172.679 87.9311C181.058 95.3631 186.771 103.71 189.82 112.973C192.868 122.235 193.316 131.615 191.165 141.114C188.943 150.692 184.116 159.67 176.684 168.049C170.95 174.513 164.671 179.422 157.844 182.778C150.948 186.213 143.961 188.143 136.883 188.567C129.655 189 122.643 187.984 115.846 185.52C108.979 183.135 102.632 179.36 96.8071 174.193C90.0242 168.176 85.0618 162.277 81.9199 156.496C78.6982 150.644 76.2738 144.858 74.6467 139.138C74.3712 138.323 74.3126 137.344 74.4709 136.201C74.5493 134.988 75.084 133.822 76.0749 132.705C77.2074 131.428 78.6726 130.66 80.4706 130.402C82.1977 130.223 83.8593 130.841 85.4553 132.257C86.3331 133.035 86.994 133.978 87.4381 135.085C89.1089 140.274 91.2887 145.13 93.9775 149.654C96.6664 154.178 100.325 158.492 104.953 162.597C110.938 167.906 117.497 171.442 124.629 173.206C131.612 174.98 138.698 174.706 145.888 172.387C152.928 170.076 159.562 165.41 165.791 158.387C171.241 152.243 174.884 145.564 176.719 138.352C178.483 131.219 178.205 124.058 175.885 116.867C173.566 109.677 168.975 103.038 162.112 96.951C157.883 93.1996 153.588 90.2456 149.227 88.0888C144.796 86.0118 140.551 84.5281 136.493 83.6377L117.276 105.303L137.026 122.821C138.383 124.025 139.115 125.53 139.224 127.337C139.332 129.144 138.784 130.725 137.581 132.082C136.378 133.438 134.873 134.171 133.066 134.279C131.259 134.387 129.677 133.84 128.32 132.636L104.74 111.721C103.144 110.305 102.283 108.543 102.156 106.435C102.03 104.327 102.675 102.475 104.091 100.879L128.192 73.7075C129.678 72.0317 131.462 70.9048 133.543 70.3269C135.473 69.7579 137.4 69.756 139.323 70.3209C145.002 71.7942 150.723 73.945 156.483 76.7735C162.094 79.6111 167.492 83.3303 172.679 87.9311Z" fill="#F5F5F5"/>
</g>
</svg>
