<svg width="34" height="38" viewBox="0 0 34 38" fill="none" xmlns="http://www.w3.org/2000/svg">
<path d="M0 19.2451C0 14.2762 6.09623 11.8884 9.47098 15.5354C10.4051 16.5449 10.924 17.8697 10.924 19.2451V24.4127C10.924 27.4293 8.4786 29.8747 5.46201 29.8747C2.44543 29.8747 0 27.4293 0 24.4127V19.2451Z" fill="white"/>
<path d="M22.4668 18.8452C22.4511 23.8141 16.3474 26.1884 12.9841 22.5339C12.0532 21.5224 11.5384 20.1965 11.5428 18.8211L11.559 13.6534C11.5685 10.6369 14.0217 8.19688 17.0382 8.20355C20.0548 8.21022 22.4925 10.661 22.483 13.6776L22.4668 18.8452Z" fill="white"/>
<path d="M33.9658 18.8452C33.9501 23.8141 27.8464 26.1884 24.4831 22.5339C23.5522 21.5224 23.0375 20.1965 23.0418 18.8211L23.0581 13.6534C23.0676 10.6369 25.5207 8.19688 28.5373 8.20355C31.5538 8.21022 33.9915 10.661 33.982 13.6776L33.9658 18.8452Z" fill="white"/>
<rect width="7.56763" height="17.8172" rx="3.78381" transform="matrix(-0.00169734 -0.999999 0.999999 -0.00119217 16.1113 37.9452)" fill="white"/>
<rect width="7.56763" height="17.575" rx="3.78381" transform="matrix(-0.00169734 -0.999999 0.999999 -0.00119217 0.0136719 7.58857)" fill="white"/>
</svg>
