<svg width="151" height="39" viewBox="0 0 151 39" fill="none" xmlns="http://www.w3.org/2000/svg">
<path d="M0 19.2451C0 14.2762 6.09623 11.8884 9.47098 15.5354C10.4051 16.5449 10.924 17.8697 10.924 19.2451V24.4127C10.924 27.4293 8.4786 29.8747 5.46201 29.8747C2.44543 29.8747 0 27.4293 0 24.4127V19.2451Z" fill="white"/>
<path d="M22.4668 18.8452C22.4511 23.8141 16.3474 26.1884 12.9841 22.5339C12.0532 21.5224 11.5384 20.1965 11.5428 18.8211L11.559 13.6534C11.5685 10.6369 14.0217 8.19688 17.0382 8.20355C20.0548 8.21022 22.4925 10.661 22.483 13.6776L22.4668 18.8452Z" fill="white"/>
<path d="M33.9658 18.8452C33.9501 23.8141 27.8464 26.1884 24.4831 22.5339C23.5522 21.5224 23.0375 20.1965 23.0418 18.8211L23.0581 13.6534C23.0676 10.6369 25.5207 8.19688 28.5373 8.20355C31.5538 8.21022 33.9915 10.661 33.982 13.6776L33.9658 18.8452Z" fill="white"/>
<rect width="7.56763" height="17.8172" rx="3.78381" transform="matrix(-0.00169734 -0.999999 0.999999 -0.00119217 16.1113 37.9452)" fill="white"/>
<rect width="7.56763" height="17.575" rx="3.78381" transform="matrix(-0.00169734 -0.999999 0.999999 -0.00119217 0.0136719 7.58857)" fill="white"/>
<path d="M55.9545 4.36364H57.017V12.7557C57.0133 13.5133 56.8769 14.1458 56.608 14.6534C56.339 15.1572 55.9678 15.5341 55.4943 15.7841C55.0208 16.0341 54.4773 16.1591 53.8636 16.1591C53.2614 16.1591 52.7235 16.0473 52.25 15.8239C51.7765 15.6004 51.4034 15.286 51.1307 14.8807C50.8617 14.4754 50.7273 14 50.7273 13.4545H51.7727C51.7727 13.7992 51.8636 14.1042 52.0455 14.3693C52.2273 14.6307 52.4754 14.8352 52.7898 14.983C53.108 15.1307 53.4659 15.2045 53.8636 15.2045C54.2765 15.2045 54.6383 15.1174 54.9489 14.9432C55.2633 14.7689 55.5095 14.5019 55.6875 14.142C55.8655 13.7784 55.9545 13.3163 55.9545 12.7557V4.36364ZM64.5752 16.1989C64.0487 16.1989 63.5677 16.0966 63.132 15.892C62.6964 15.6837 62.3498 15.3845 62.0923 14.9943C61.8347 14.6004 61.7059 14.1231 61.7059 13.5625C61.7059 13.1307 61.7873 12.767 61.9502 12.4716C62.1131 12.1761 62.3442 11.9337 62.6434 11.7443C62.9427 11.5549 63.2968 11.4053 63.7059 11.2955C64.115 11.1856 64.5658 11.1004 65.0582 11.0398C65.5468 10.9792 65.9597 10.9261 66.2968 10.8807C66.6377 10.8352 66.8972 10.7633 67.0752 10.6648C67.2533 10.5663 67.3423 10.4072 67.3423 10.1875V9.98295C67.3423 9.38826 67.1642 8.92045 66.8082 8.57955C66.4559 8.23485 65.9483 8.0625 65.2855 8.0625C64.6567 8.0625 64.1434 8.20076 63.7457 8.47727C63.3517 8.75379 63.0752 9.07955 62.9161 9.45455L61.9559 9.10795C62.1529 8.63068 62.4256 8.25 62.7741 7.96591C63.1226 7.67803 63.5127 7.47159 63.9445 7.34659C64.3764 7.2178 64.8139 7.15341 65.257 7.15341C65.5904 7.15341 65.937 7.19697 66.2968 7.28409C66.6605 7.37121 66.9976 7.52273 67.3082 7.73864C67.6188 7.95076 67.8707 8.24811 68.0639 8.63068C68.257 9.00947 68.3536 9.49053 68.3536 10.0739V16H67.3423V14.6193H67.2798C67.1586 14.8769 66.9786 15.1269 66.74 15.3693C66.5014 15.6117 66.2021 15.8106 65.8423 15.9659C65.4824 16.1212 65.0601 16.1989 64.5752 16.1989ZM64.7116 15.2727C65.2495 15.2727 65.7154 15.1534 66.1093 14.9148C66.5033 14.6761 66.8063 14.3598 67.0184 13.9659C67.2343 13.5682 67.3423 13.1307 67.3423 12.6534V11.392C67.2665 11.464 67.1396 11.5284 66.9616 11.5852C66.7873 11.642 66.5847 11.6932 66.3536 11.7386C66.1264 11.7803 65.8991 11.8163 65.6718 11.8466C65.4445 11.8769 65.24 11.9034 65.0582 11.9261C64.5658 11.9867 64.1453 12.0814 63.7968 12.2102C63.4483 12.339 63.1813 12.517 62.9957 12.7443C62.8101 12.9678 62.7173 13.2557 62.7173 13.608C62.7173 14.1383 62.9067 14.5492 63.2855 14.8409C63.6642 15.1288 64.1396 15.2727 64.7116 15.2727ZM76.6931 16.1818C75.9128 16.1818 75.2328 15.9867 74.6533 15.5966C74.0775 15.2064 73.6306 14.6723 73.3124 13.9943C72.9942 13.3163 72.8351 12.5436 72.8351 11.6761C72.8351 10.8011 72.9961 10.0227 73.3181 9.34091C73.6438 8.65909 74.0946 8.125 74.6703 7.73864C75.2461 7.34848 75.9147 7.15341 76.676 7.15341C77.2594 7.15341 77.7878 7.26705 78.2612 7.49432C78.7347 7.7178 79.1249 8.03409 79.4317 8.44318C79.7423 8.84848 79.9374 9.32197 80.0169 9.86364H78.9942C78.8881 9.37121 78.6325 8.95076 78.2272 8.60227C77.8256 8.25 77.3143 8.07386 76.6931 8.07386C76.1362 8.07386 75.6438 8.22538 75.2158 8.52841C74.7878 8.82765 74.4525 9.24621 74.2101 9.78409C73.9715 10.3182 73.8522 10.9375 73.8522 11.642C73.8522 12.3504 73.9696 12.9773 74.2044 13.5227C74.4393 14.0644 74.7688 14.4886 75.1931 14.7955C75.6211 15.1023 76.1211 15.2557 76.6931 15.2557C77.0794 15.2557 77.4317 15.1837 77.7499 15.0398C78.0719 14.892 78.3408 14.6837 78.5567 14.4148C78.7764 14.1458 78.9241 13.8258 78.9999 13.4545H80.0226C79.9469 13.9811 79.7594 14.4508 79.4601 14.8636C79.1647 15.2727 78.7802 15.5947 78.3067 15.8295C77.837 16.0644 77.2991 16.1818 76.6931 16.1818ZM90.345 19.2727V14.3807H90.2541C90.1367 14.6458 89.97 14.9186 89.7541 15.1989C89.5382 15.4754 89.2522 15.7083 88.8961 15.8977C88.5401 16.0871 88.0988 16.1818 87.5723 16.1818C86.8602 16.1818 86.2333 15.9924 85.6916 15.6136C85.1537 15.2348 84.7333 14.7064 84.4302 14.0284C84.131 13.3504 83.9814 12.5606 83.9814 11.6591C83.9814 10.7614 84.131 9.97538 84.4302 9.30114C84.7333 8.62311 85.1556 8.09659 85.6973 7.72159C86.2389 7.3428 86.8696 7.15341 87.5893 7.15341C88.1234 7.15341 88.5647 7.24811 88.9132 7.4375C89.2655 7.62689 89.5477 7.85985 89.7598 8.13636C89.9719 8.40909 90.1367 8.67614 90.2541 8.9375H90.3734V7.27273H91.362V19.2727H90.345ZM87.6916 15.2557C88.256 15.2557 88.737 15.1023 89.1348 14.7955C89.5325 14.4848 89.8355 14.0587 90.0439 13.517C90.256 12.9716 90.362 12.3466 90.362 11.642C90.362 10.9451 90.2579 10.3295 90.0495 9.79545C89.8412 9.25758 89.5382 8.83712 89.1405 8.53409C88.7465 8.22727 88.2636 8.07386 87.6916 8.07386C87.1083 8.07386 86.6158 8.23295 86.2143 8.55114C85.8128 8.86553 85.5098 9.29167 85.3052 9.82955C85.1007 10.3674 84.9984 10.9716 84.9984 11.642C84.9984 12.3201 85.1026 12.9318 85.3109 13.4773C85.5192 14.0227 85.8242 14.4564 86.2257 14.7784C86.6272 15.0966 87.1158 15.2557 87.6916 15.2557ZM101.809 12.6648V7.27273H102.821V16H101.809V14.5511H101.73C101.525 14.9981 101.201 15.3712 100.758 15.6705C100.315 15.9659 99.7734 16.1136 99.1333 16.1136C98.5765 16.1136 98.0822 15.9924 97.6503 15.75C97.2185 15.5038 96.8795 15.1439 96.6333 14.6705C96.3871 14.197 96.264 13.6155 96.264 12.9261V7.27273H97.2753V12.8636C97.2753 13.5455 97.4761 14.0947 97.8776 14.5114C98.2791 14.9242 98.7943 15.1307 99.4231 15.1307C99.817 15.1307 100.196 15.036 100.559 14.8466C100.923 14.6572 101.222 14.3807 101.457 14.017C101.692 13.6496 101.809 13.1989 101.809 12.6648ZM111.267 16.1818C110.452 16.1818 109.748 15.9924 109.153 15.6136C108.558 15.2311 108.098 14.7027 107.772 14.0284C107.45 13.3504 107.289 12.5701 107.289 11.6875C107.289 10.8087 107.45 10.0284 107.772 9.34659C108.098 8.66098 108.547 8.125 109.119 7.73864C109.695 7.34848 110.36 7.15341 111.113 7.15341C111.587 7.15341 112.043 7.24053 112.483 7.41477C112.922 7.58523 113.316 7.84848 113.664 8.20455C114.017 8.55682 114.295 9.00189 114.5 9.53977C114.704 10.0739 114.807 10.7064 114.807 11.4375V11.9375H107.988V11.0455H113.772C113.772 10.4848 113.659 9.98106 113.432 9.53409C113.208 9.08333 112.896 8.72727 112.494 8.46591C112.096 8.20455 111.636 8.07386 111.113 8.07386C110.56 8.07386 110.074 8.22159 109.653 8.51705C109.233 8.8125 108.903 9.20265 108.664 9.6875C108.43 10.1723 108.31 10.7027 108.307 11.2784V11.8125C108.307 12.5057 108.426 13.1117 108.664 13.6307C108.907 14.1458 109.25 14.5455 109.693 14.8295C110.136 15.1136 110.661 15.2557 111.267 15.2557C111.68 15.2557 112.041 15.1913 112.352 15.0625C112.666 14.9337 112.93 14.7614 113.142 14.5455C113.358 14.3258 113.521 14.0852 113.63 13.8239L114.591 14.1364C114.458 14.5038 114.24 14.8428 113.937 15.1534C113.638 15.464 113.263 15.714 112.812 15.9034C112.365 16.089 111.85 16.1818 111.267 16.1818ZM120.287 4.36364V16H119.275V4.36364H120.287ZM125.214 16V7.27273H126.231V16H125.214ZM125.731 5.77273C125.523 5.77273 125.345 5.70265 125.197 5.5625C125.049 5.41856 124.975 5.24621 124.975 5.04545C124.975 4.8447 125.049 4.67424 125.197 4.53409C125.345 4.39015 125.523 4.31818 125.731 4.31818C125.939 4.31818 126.118 4.39015 126.265 4.53409C126.413 4.67424 126.487 4.8447 126.487 5.04545C126.487 5.24621 126.413 5.41856 126.265 5.5625C126.118 5.70265 125.939 5.77273 125.731 5.77273ZM132.157 10.5455V16H131.146V7.27273H132.129V8.64205H132.22C132.424 8.19508 132.742 7.83712 133.174 7.56818C133.61 7.29545 134.148 7.15909 134.788 7.15909C135.375 7.15909 135.89 7.2822 136.333 7.52841C136.78 7.77083 137.127 8.12879 137.373 8.60227C137.623 9.07576 137.748 9.6572 137.748 10.3466V16H136.737V10.4091C136.737 9.69318 136.536 9.12689 136.134 8.71023C135.737 8.29356 135.203 8.08523 134.532 8.08523C134.074 8.08523 133.667 8.18371 133.311 8.38068C132.955 8.57765 132.672 8.86174 132.464 9.23295C132.259 9.60038 132.157 10.0379 132.157 10.5455ZM146.18 16.1818C145.365 16.1818 144.661 15.9924 144.066 15.6136C143.472 15.2311 143.011 14.7027 142.686 14.0284C142.364 13.3504 142.203 12.5701 142.203 11.6875C142.203 10.8087 142.364 10.0284 142.686 9.34659C143.011 8.66098 143.46 8.125 144.032 7.73864C144.608 7.34848 145.273 7.15341 146.026 7.15341C146.5 7.15341 146.956 7.24053 147.396 7.41477C147.835 7.58523 148.229 7.84848 148.578 8.20455C148.93 8.55682 149.208 9.00189 149.413 9.53977C149.617 10.0739 149.72 10.7064 149.72 11.4375V11.9375H142.901V11.0455H148.686C148.686 10.4848 148.572 9.98106 148.345 9.53409C148.121 9.08333 147.809 8.72727 147.407 8.46591C147.009 8.20455 146.549 8.07386 146.026 8.07386C145.473 8.07386 144.987 8.22159 144.566 8.51705C144.146 8.8125 143.816 9.20265 143.578 9.6875C143.343 10.1723 143.223 10.7027 143.22 11.2784V11.8125C143.22 12.5057 143.339 13.1117 143.578 13.6307C143.82 14.1458 144.163 14.5455 144.606 14.8295C145.049 15.1136 145.574 15.2557 146.18 15.2557C146.593 15.2557 146.955 15.1913 147.265 15.0625C147.58 14.9337 147.843 14.7614 148.055 14.5455C148.271 14.3258 148.434 14.0852 148.544 13.8239L149.504 14.1364C149.371 14.5038 149.153 14.8428 148.85 15.1534C148.551 15.464 148.176 15.714 147.725 15.9034C147.278 16.089 146.763 16.1818 146.18 16.1818ZM59.5966 27C59.4905 26.6136 59.3352 26.2519 59.1307 25.9148C58.9261 25.5739 58.6723 25.2765 58.3693 25.0227C58.0701 24.7652 57.7235 24.5644 57.3295 24.4205C56.9394 24.2765 56.5038 24.2045 56.0227 24.2045C55.2652 24.2045 54.5871 24.4015 53.9886 24.7955C53.3902 25.1894 52.9167 25.7576 52.5682 26.5C52.2235 27.2424 52.0511 28.1364 52.0511 29.1818C52.0511 30.2235 52.2254 31.1155 52.5739 31.858C52.9223 32.6004 53.3996 33.1705 54.0057 33.5682C54.6155 33.9621 55.3125 34.1591 56.0966 34.1591C56.8125 34.1591 57.4451 34 57.9943 33.6818C58.5436 33.3636 58.9716 32.9091 59.2784 32.3182C59.589 31.7273 59.7405 31.0246 59.733 30.2102L60.0739 30.3182H56.3466V29.3636H60.767V30.3182C60.767 31.3106 60.5663 32.1686 60.1648 32.892C59.7633 33.6155 59.2121 34.1742 58.5114 34.5682C57.8106 34.9621 57.0057 35.1591 56.0966 35.1591C55.0814 35.1591 54.1932 34.9148 53.4318 34.4261C52.6705 33.9337 52.0777 33.2405 51.6534 32.3466C51.233 31.4489 51.0227 30.3939 51.0227 29.1818C51.0227 28.2689 51.1439 27.4451 51.3864 26.7102C51.6288 25.9754 51.9716 25.3466 52.4148 24.8239C52.8617 24.3011 53.3902 23.9015 54 23.625C54.6098 23.3447 55.2841 23.2045 56.0227 23.2045C56.6591 23.2045 57.2405 23.3049 57.767 23.5057C58.2973 23.7064 58.7633 23.983 59.1648 24.3352C59.5701 24.6837 59.9015 25.0871 60.1591 25.5455C60.4205 26 60.5966 26.4848 60.6875 27H59.5966ZM68.8266 35.1818C68.0729 35.1818 67.4062 34.9905 66.8266 34.608C66.2509 34.2254 65.8001 33.697 65.4744 33.0227C65.1486 32.3447 64.9857 31.5625 64.9857 30.6761C64.9857 29.7822 65.1486 28.9962 65.4744 28.3182C65.8001 27.6364 66.2509 27.1061 66.8266 26.7273C67.4062 26.3447 68.0729 26.1534 68.8266 26.1534C69.5804 26.1534 70.2452 26.3447 70.821 26.7273C71.3967 27.1098 71.8475 27.6402 72.1732 28.3182C72.5028 28.9962 72.6676 29.7822 72.6676 30.6761C72.6676 31.5625 72.5047 32.3447 72.1789 33.0227C71.8532 33.697 71.4005 34.2254 70.821 34.608C70.2452 34.9905 69.5804 35.1818 68.8266 35.1818ZM68.8266 34.2557C69.4327 34.2557 69.946 34.0928 70.3664 33.767C70.7869 33.4413 71.1051 33.0076 71.321 32.4659C71.5407 31.9242 71.6505 31.3277 71.6505 30.6761C71.6505 30.0246 71.5407 29.4261 71.321 28.8807C71.1051 28.3352 70.7869 27.8977 70.3664 27.5682C69.946 27.2386 69.4327 27.0739 68.8266 27.0739C68.2244 27.0739 67.7111 27.2386 67.2869 27.5682C66.8664 27.8977 66.5463 28.3352 66.3266 28.8807C66.1107 29.4261 66.0028 30.0246 66.0028 30.6761C66.0028 31.3277 66.1107 31.9242 66.3266 32.4659C66.5463 33.0076 66.8664 33.4413 67.2869 33.767C67.7073 34.0928 68.2206 34.2557 68.8266 34.2557ZM77.1277 35V26.2727H78.1107V27.6136H78.2016C78.3758 27.1629 78.6656 26.8087 79.0709 26.5511C79.48 26.2898 79.9705 26.1591 80.5425 26.1591C81.1448 26.1591 81.6391 26.3011 82.0255 26.5852C82.4156 26.8655 82.7073 27.2519 82.9005 27.7443H82.9743C83.1713 27.2595 83.4914 26.875 83.9345 26.5909C84.3815 26.303 84.9232 26.1591 85.5595 26.1591C86.3702 26.1591 87.0103 26.4148 87.48 26.9261C87.9497 27.4337 88.1845 28.1761 88.1845 29.1534V35H87.1732V29.1534C87.1732 28.464 86.997 27.947 86.6448 27.6023C86.2925 27.2576 85.8285 27.0852 85.2527 27.0852C84.5861 27.0852 84.0728 27.2898 83.713 27.6989C83.3531 28.108 83.1732 28.6269 83.1732 29.2557V35H82.1391V29.0625C82.1391 28.4716 81.9743 27.9943 81.6448 27.6307C81.3152 27.267 80.8512 27.0852 80.2527 27.0852C79.8512 27.0852 79.4895 27.1837 79.1675 27.3807C78.8493 27.5777 78.5974 27.8523 78.4118 28.2045C78.23 28.553 78.1391 28.9545 78.1391 29.4091V35H77.1277ZM96.6305 35.1818C95.8161 35.1818 95.1116 34.9924 94.5169 34.6136C93.9222 34.2311 93.462 33.7027 93.1362 33.0284C92.8142 32.3504 92.6532 31.5701 92.6532 30.6875C92.6532 29.8087 92.8142 29.0284 93.1362 28.3466C93.462 27.661 93.9108 27.125 94.4828 26.7386C95.0585 26.3485 95.7233 26.1534 96.4771 26.1534C96.9506 26.1534 97.407 26.2405 97.8464 26.4148C98.2858 26.5852 98.6798 26.8485 99.0282 27.2045C99.3805 27.5568 99.6589 28.0019 99.8635 28.5398C100.068 29.0739 100.17 29.7064 100.17 30.4375V30.9375H93.3521V30.0455H99.1362C99.1362 29.4848 99.0226 28.9811 98.7953 28.5341C98.5718 28.0833 98.2593 27.7273 97.8578 27.4659C97.4601 27.2045 96.9998 27.0739 96.4771 27.0739C95.9241 27.0739 95.4373 27.2216 95.0169 27.517C94.5964 27.8125 94.2669 28.2027 94.0282 28.6875C93.7934 29.1723 93.6741 29.7027 93.6703 30.2784V30.8125C93.6703 31.5057 93.7896 32.1117 94.0282 32.6307C94.2707 33.1458 94.6135 33.5455 95.0566 33.8295C95.4998 34.1136 96.0245 34.2557 96.6305 34.2557C97.0434 34.2557 97.4051 34.1913 97.7157 34.0625C98.0301 33.9337 98.2934 33.7614 98.5055 33.5455C98.7214 33.3258 98.8843 33.0852 98.9941 32.8239L99.9544 33.1364C99.8218 33.5038 99.604 33.8428 99.301 34.1534C99.0017 34.464 98.6267 34.714 98.176 34.9034C97.729 35.089 97.2138 35.1818 96.6305 35.1818ZM104.366 35V34.1989L109.412 27.3011V27.2273H104.582V26.2727H110.713V27.108L105.758 33.9716V34.0455H110.895V35H104.366Z" fill="white"/>
</svg>
