<svg width="70" height="70" viewBox="0 0 70 70" fill="none" xmlns="http://www.w3.org/2000/svg">
<path d="M56.4366 21.8972L34.5395 59.8242L12.6423 21.8972L56.4366 21.8972Z" fill="#2C2C2C"/>
<path d="M22.1132 51.4626C20.4332 48.5527 19.5986 45.6351 19.6094 42.7098C19.6202 39.7845 20.3821 37.0722 21.8951 34.5728C23.4358 32.0574 25.6611 29.9598 28.571 28.2798C30.8157 26.9838 33.0686 26.1819 35.3297 25.8741C37.6184 25.5504 39.7901 25.6638 41.8446 26.2143C43.9428 26.7765 45.8423 27.7305 47.5431 29.0764C49.2716 30.4063 50.7199 32.0828 51.8879 34.1059C53.2479 36.4614 54.1009 38.6109 54.447 40.5543C54.809 42.5253 54.9503 44.4021 54.8709 46.1846C54.8721 46.4426 54.7959 46.7267 54.6425 47.037C54.5051 47.375 54.2424 47.656 53.8544 47.88C53.411 48.136 52.9212 48.2156 52.3849 48.1187C51.8764 48.0059 51.4621 47.6723 51.1421 47.1181C50.9661 46.8132 50.8674 46.4822 50.8459 46.1251C50.8625 44.4897 50.7026 42.9008 50.3663 41.3583C50.03 39.8158 49.3978 38.2409 48.4698 36.6335C47.2698 34.5551 45.7384 32.9266 43.8756 31.7481C42.0565 30.5814 40.0137 29.9871 37.7472 29.9655C35.5245 29.9555 33.1937 30.6546 30.755 32.0626C28.6211 33.2946 26.9511 34.85 25.7449 36.7288C24.5664 38.5916 23.9663 40.6562 23.9447 42.9227C23.923 45.1892 24.6002 47.5141 25.9762 49.8974C26.8242 51.3662 27.7664 52.6142 28.803 53.6416C29.8673 54.653 30.9347 55.4778 32.0052 56.116L39.5292 51.772L35.5692 44.9131C35.2972 44.442 35.2315 43.9441 35.3721 43.4196C35.5126 42.895 35.8185 42.4967 36.2896 42.2247C36.7607 41.9527 37.2585 41.887 37.7831 42.0276C38.3076 42.1681 38.7059 42.474 38.9779 42.9451L43.7059 51.1342C44.0259 51.6885 44.1039 52.2716 43.9399 52.8836C43.776 53.4956 43.4168 53.9615 42.8626 54.2815L33.4264 59.7295C32.8444 60.0655 32.2299 60.2171 31.5827 60.1843C30.9793 60.1632 30.4308 59.981 29.9371 59.6379C28.4603 58.68 27.0361 57.5253 25.6647 56.174C24.3371 54.8344 23.1532 53.2639 22.1132 51.4626Z" fill="#F5F5F5"/>
</svg>
