<svg width="738" height="786" viewBox="0 0 738 786" fill="none" xmlns="http://www.w3.org/2000/svg">
<g clip-path="url(#clip0_766_105)">
<path d="M0 411.712C0 306.719 128.866 256.264 200.205 333.326L210.632 344.59C230.378 365.921 241.348 393.914 241.348 422.976V544.354C241.348 608.092 189.654 659.767 125.888 659.767H115.46C51.6934 659.767 0 608.092 0 544.354V411.712Z" fill="white" fill-opacity="0.04"/>
<path d="M496.32 429.493C495.989 534.488 366.963 584.658 295.869 507.436L285.477 496.15C265.798 474.775 254.917 446.759 255.008 417.696L255.391 296.32C255.592 232.579 307.447 181.022 371.214 181.163L381.641 181.186C445.408 181.327 496.938 233.113 496.737 296.854L496.32 429.493Z" fill="white" fill-opacity="0.04"/>
<path d="M750.374 429.493C750.043 534.488 621.019 584.658 549.921 507.436L539.529 496.15C519.851 474.775 508.973 446.759 509.063 417.696L509.445 296.32C509.645 232.579 561.502 181.022 625.266 181.163L635.698 181.186C699.462 181.327 750.992 233.113 750.791 296.854L750.374 429.493Z" fill="white" fill-opacity="0.04"/>
<path d="M355.807 754.437L355.807 754.437C355.886 800.588 393.377 837.955 439.546 837.9L665.992 837.631C712.161 837.576 749.525 800.119 749.447 753.968L749.447 753.968C749.368 707.818 711.877 670.45 665.708 670.505L439.262 670.775C393.093 670.83 355.729 708.287 355.807 754.437Z" fill="white" fill-opacity="0.04"/>
<path d="M0.161818 84.0243L0.161819 84.0248C0.240184 130.175 37.7311 167.543 83.9002 167.488L304.995 167.224C351.164 167.169 388.528 129.712 388.45 83.5621L388.45 83.5616C388.372 37.4113 350.881 0.0436619 304.712 0.098681L83.6164 0.362157C37.4473 0.417176 0.0834537 37.874 0.161818 84.0243Z" fill="white" fill-opacity="0.04"/>
</g>
<defs>
<clipPath id="clip0_766_105">
<rect width="753" height="838" fill="white"/>
</clipPath>
</defs>
</svg>
